<svg height="512pt" viewBox="-80 0 512 512" width="512pt" xmlns="http://www.w3.org/2000/svg"><path d="m296.167969 0h-241c-30.421875 0-55.167969 24.746094-55.167969 55.167969v298.300781h351.332031v-298.300781c0-30.421875-24.746093-55.167969-55.164062-55.167969zm-105.503907 270.796875v17.335937c0 8.285157-6.714843 15-15 15-8.285156 0-15-6.714843-15-15v-17.132812h-17.132812c-8.285156 0-15-6.714844-15-15s6.714844-15 15-15h42.847656c9.445313 0 17.132813-7.6875 17.132813-17.132812 0-9.445313-7.6875-17.132813-17.132813-17.132813h-21.429687c-25.984375 0-47.128907-21.144531-47.128907-47.136719 0-24.542968 18.859376-44.753906 42.84375-46.929687v-17.332031c0-8.285157 6.714844-15 15-15 8.285157 0 15 6.714843 15 15v17.128906h17.132813c8.28125 0 15 6.714844 15 15 0 8.28125-6.714844 15-15 15h-32.117187c-.003907 0-.011719.003906-.015626.003906-.003906 0-.011718-.003906-.015624-.003906l-10.695313.003906c-9.449219 0-17.132813 7.683594-17.132813 17.128906 0 9.449219 7.683594 17.136719 17.128907 17.136719h21.429687c25.988282 0 47.132813 21.144531 47.132813 47.132813 0 24.542968-18.859375 44.753906-42.847657 46.929687zm0 0"/><path d="m175.667969 456.835938c5.015625 0 9.101562-4.082032 9.101562-9.101563s-4.082031-9.101563-9.101562-9.101563-9.101563 4.082032-9.101563 9.101563 4.082032 9.101563 9.101563 9.101563zm0 0"/><path d="m0 456.835938c0 30.417968 24.746094 55.164062 55.167969 55.164062h241c30.417969 0 55.164062-24.746094 55.164062-55.164062v-73.367188h-351.332031zm175.667969-48.203126c21.558593 0 39.101562 17.542969 39.101562 39.101563 0 21.5625-17.542969 39.101563-39.101562 39.101563-21.5625 0-39.101563-17.539063-39.101563-39.101563 0-21.558594 17.539063-39.101563 39.101563-39.101563zm0 0"/></svg>