<svg height="512pt" viewBox="-76 0 512 512.00002" width="512pt" xmlns="http://www.w3.org/2000/svg"><path d="m284.960938 389.984375c8.292968 0 15.003906-6.710937 15.003906-15 0-8.292969-6.710938-15.003906-15.003906-15.003906-42.59375 0-160.277344 0-210.023438 0-8.292969 0-15.003906 6.710937-15.003906 15.003906 0 8.289063 6.710937 15 15.003906 15h15v32.003906h-15c-8.292969 0-15.003906 6.710938-15.003906 15.003907 0 8.289062 6.710937 15 15.003906 15h210.023438c8.292968 0 15.003906-6.710938 15.003906-15 0-8.292969-6.710938-15.003907-15.003906-15.003907h-15v-32.003906zm0 0"/><path d="m293.402344 40.179688c-42.28125-34.339844-97.601563-47.554688-152.101563-36.199219-69.589843 14.53125-125.113281 71.417969-138.152343 141.535156-13.492188 72.34375 17.101562 144.375 77.847656 184.460937h198.078125c50.652343-33.472656 80.898437-89.429687 80.898437-150.019531 0-54.453125-24.261718-105.390625-66.570312-139.777343zm-98.042969 212.078124c-.132813.046876-.273437.023438-.410156.070313v17.640625c0 8.292969-6.707031 15.003906-15 15.003906s-15.003907-6.710937-15.003907-15.003906v-17.742188c-9.886718-3.335937-19.359374-9.667968-27.453124-19.308593-5.332032-6.34375-4.511719-15.808594 1.847656-21.140625 6.328125-5.359375 15.820312-4.511719 21.125 1.832031 7.910156 9.449219 16.964844 13.273437 24.613281 10.445313 5.917969-2.140626 9.871094-7.808594 9.871094-14.09375 0-8.277344-6.738281-15.003907-15-15.003907-24.816407 0-45.003907-20.1875-45.003907-45.003906 0-17.878906 10.261719-35.105469 30-42.089844v-17.917969c0-8.289062 6.710938-15 15.003907-15s15 6.710938 15 15v17.976563c7.769531 2.617187 15.339843 6.769531 22.09375 13.304687 5.949219 5.769532 6.125 15.265626.351562 21.210938-5.769531 5.992188-15.265625 6.125-21.210937.355469-7.296875-7.09375-15.414063-9.511719-22.066406-6.667969-5.566407 2.359375-9.171876 7.777344-9.171876 13.828125 0 8.277344 6.742188 15.003906 15.003907 15.003906 24.816406 0 45.003906 20.1875 45.003906 45.003907 0 18.839843-11.894531 35.851562-29.59375 42.296874zm0 0"/><path d="m164.945312 512h30.003907c19.535156 0 36.03125-12.578125 42.246093-30.003906h-114.492187c6.214844 17.425781 22.710937 30.003906 42.242187 30.003906zm0 0"/></svg>